<svg version="1.1" xmlns="http://www.w3.org/2000/svg" viewBox="0 0 530 287.5" width="530" height="287.5">
  <!-- svg-source:excalidraw -->
  
  <defs>
    <style>
      @font-face {
        font-family: "Virgil";
        src: url("https://excalidraw.com/Virgil.woff2");
      }
      @font-face {
        font-family: "Cascadia";
        src: url("https://excalidraw.com/Cascadia.woff2");
      }
    </style>
  </defs>
  <rect x="0" y="0" width="530" height="287.5" fill="#ffffff"></rect><g stroke-opacity="0.9" fill-opacity="0.9" stroke-linecap="round" transform="translate(10 20) rotate(0 76.5 39.5)"><path d="M0 0 C54.44 0, 108.88 0, 153 0 M0 0 C40.61 0, 81.22 0, 153 0 M153 0 C153 25.6, 153 51.2, 153 79 M153 0 C153 17.58, 153 35.16, 153 79 M153 79 C107.33 79, 61.67 79, 0 79 M153 79 C96.07 79, 39.14 79, 0 79 M0 79 C0 51.54, 0 24.09, 0 0 M0 79 C0 53.41, 0 27.82, 0 0" stroke="#000000" stroke-width="1" fill="none"></path></g><g stroke-opacity="0.9" fill-opacity="0.9" transform="translate(32 47.5) rotate(0 52.5 12)"><text x="0" y="17" font-family="Helvetica, Segoe UI Emoji" font-size="20px" fill="#000000" text-anchor="start" style="white-space: pre;" direction="ltr">Forecasters</text></g><g stroke-opacity="0.9" fill-opacity="0.9" stroke-linecap="round" transform="translate(228 10) rotate(0 92.5 52)"><path d="M0 0 C53.6 0, 107.2 0, 185 0 M0 0 C40.54 0, 81.07 0, 185 0 M185 0 C185 36.08, 185 72.16, 185 104 M185 0 C185 31.97, 185 63.94, 185 104 M185 104 C144.67 104, 104.34 104, 0 104 M185 104 C138.59 104, 92.18 104, 0 104 M0 104 C0 74.33, 0 44.66, 0 0 M0 104 C0 76.84, 0 49.68, 0 0" stroke="#000000" stroke-width="1" fill="none"></path></g><g stroke-opacity="0.9" fill-opacity="0.9" transform="translate(245 22.5) rotate(0 58 36)"><text x="0" y="17" font-family="Helvetica, Segoe UI Emoji" font-size="20px" fill="#000000" text-anchor="start" style="white-space: pre;" direction="ltr">Trusted</text><text x="0" y="41" font-family="Helvetica, Segoe UI Emoji" font-size="20px" fill="#000000" text-anchor="start" style="white-space: pre;" direction="ltr">Bayesian</text><text x="0" y="65" font-family="Helvetica, Segoe UI Emoji" font-size="20px" fill="#000000" text-anchor="start" style="white-space: pre;" direction="ltr">approximator</text></g><g stroke-linecap="round"><g stroke-opacity="0.9" fill-opacity="0.9" transform="translate(165 58) rotate(0 31.5 0)"><path d="M0 0 C10.5 0, 52.5 0, 63 0 M0 0 C10.5 0, 52.5 0, 63 0" stroke="#000000" stroke-width="1" fill="none"></path></g><g stroke-opacity="0.9" fill-opacity="0.9" transform="translate(165 58) rotate(0 31.5 0)"><path d="M34.81 10.26 C40.92 8.03, 47.04 5.81, 63 0 M34.81 10.26 C41.37 7.87, 47.93 5.49, 63 0" stroke="#000000" stroke-width="1" fill="none"></path></g><g stroke-opacity="0.9" fill-opacity="0.9" transform="translate(165 58) rotate(0 31.5 0)"><path d="M34.81 -10.26 C40.92 -8.03, 47.04 -5.81, 63 0 M34.81 -10.26 C41.37 -7.87, 47.93 -5.49, 63 0" stroke="#000000" stroke-width="1" fill="none"></path></g></g><g stroke-linecap="round"><g stroke-opacity="0.9" fill-opacity="0.9" transform="translate(415 53) rotate(0 37 0.5)"><path d="M0 0 C12.33 0.17, 61.67 0.83, 74 1 M0 0 C12.33 0.17, 61.67 0.83, 74 1" stroke="#000000" stroke-width="1" fill="none"></path></g></g><g stroke-linecap="round"><g stroke-opacity="0.9" fill-opacity="0.9" transform="translate(488 54) rotate(0 -0.5 86.5)"><path d="M0 0 C-0.17 28.83, -0.83 144.17, -1 173 M0 0 C-0.17 28.83, -0.83 144.17, -1 173" stroke="#000000" stroke-width="1" fill="none"></path></g></g><g stroke-linecap="round"><g stroke-opacity="0.9" fill-opacity="0.9" transform="translate(451 227) rotate(0 34.5 0.5)"><path d="M0 0 C11.5 0.17, 57.5 0.83, 69 1 M0 0 C11.5 0.17, 57.5 0.83, 69 1" stroke="#000000" stroke-width="1" fill="none"></path></g></g><g stroke-linecap="round"><g stroke-opacity="0.9" fill-opacity="0.9" transform="translate(467 233) rotate(0 19 0)"><path d="M0 0 C6.33 0, 31.67 0, 38 0 M0 0 C6.33 0, 31.67 0, 38 0" stroke="#000000" stroke-width="1" fill="none"></path></g></g><g stroke-linecap="round"><g stroke-opacity="0.9" fill-opacity="0.9" transform="translate(480 240) rotate(0 5.5 0)"><path d="M0 0 C1.83 0, 9.17 0, 11 0 M0 0 C1.83 0, 9.17 0, 11 0" stroke="#000000" stroke-width="1" fill="none"></path></g></g><g stroke-opacity="0.9" fill-opacity="0.9" transform="translate(458 253.5) rotate(0 30.5 12)"><text x="0" y="17" font-family="Helvetica, Segoe UI Emoji" font-size="20px" fill="#000000" text-anchor="start" style="white-space: pre;" direction="ltr">Reality</text></g></svg>